<svg width="58" height="58" viewBox="0 0 58 58" fill="none" xmlns="http://www.w3.org/2000/svg">
<path d="M45.8035 0H12.1992C9.38837 0 7.10156 2.28681 7.10156 5.09766V52.9023C7.10156 55.7132 9.38837 58 12.1992 58H45.8035C48.6144 58 50.9012 55.7132 50.9012 52.9023V5.09766C50.9012 2.28681 48.6143 0 45.8035 0ZM14.0223 10.0084C14.0223 9.26074 14.634 8.64902 15.3816 8.64902H43.0758C43.8235 8.64902 44.4352 9.26074 44.4352 10.0084V15.1909C44.4353 15.9386 43.8236 16.5503 43.0759 16.5503H15.3816C14.634 16.5503 14.0223 15.9386 14.0223 15.1909V10.0084ZM30.5904 28.5916H27.4125C26.474 28.5916 25.7133 27.8308 25.7133 26.8924V24.5834C25.7133 23.645 26.4741 22.8842 27.4125 22.8842H30.5904C31.5288 22.8842 32.2896 23.645 32.2896 24.5834V26.8924C32.2896 27.8308 31.5288 28.5916 30.5904 28.5916ZM32.2896 35.5289V37.8379C32.2896 38.7763 31.5288 39.5371 30.5904 39.5371H27.4125C26.4741 39.5371 25.7133 38.7763 25.7133 37.8379V35.5289C25.7133 34.5903 26.474 33.8296 27.4125 33.8296H30.5904C31.5288 33.8296 32.2896 34.5904 32.2896 35.5289ZM20.1436 48.7833C20.1436 49.7217 19.3828 50.4825 18.4444 50.4825H15.2665C14.3281 50.4825 13.5673 49.7217 13.5673 48.7833V46.4743C13.5673 45.5359 14.3281 44.7751 15.2665 44.7751H18.4444C19.3828 44.7751 20.1436 45.5358 20.1436 46.4743V48.7833ZM20.1436 37.8379C20.1436 38.7763 19.3828 39.5371 18.4444 39.5371H15.2665C14.3281 39.5371 13.5673 38.7763 13.5673 37.8379V35.5289C13.5673 34.5904 14.3281 33.8296 15.2665 33.8296H18.4444C19.3828 33.8296 20.1436 34.5904 20.1436 35.5289V37.8379ZM20.1436 26.8924C20.1436 27.8308 19.3828 28.5916 18.4444 28.5916H15.2665C14.3281 28.5916 13.5673 27.8308 13.5673 26.8924V24.5834C13.5673 23.645 14.3281 22.8842 15.2665 22.8842H18.4444C19.3828 22.8842 20.1436 23.645 20.1436 24.5834V26.8924ZM44.4353 48.7833C44.4353 49.7217 43.6745 50.4825 42.7361 50.4825H27.4124C26.474 50.4825 25.7132 49.7217 25.7132 48.7833V46.4743C25.7132 45.5358 26.4739 44.7751 27.4124 44.7751H42.7361C43.6745 44.7751 44.4353 45.5359 44.4353 46.4743V48.7833ZM44.4353 37.8379C44.4353 38.7763 43.6745 39.5371 42.7361 39.5371H39.5582C38.6198 39.5371 37.859 38.7763 37.859 37.8379V35.5289C37.859 34.5904 38.6198 33.8296 39.5582 33.8296H42.7361C43.6745 33.8296 44.4353 34.5904 44.4353 35.5289V37.8379ZM44.4353 26.8924C44.4353 27.8308 43.6745 28.5916 42.7361 28.5916H39.5582C38.6198 28.5916 37.859 27.8308 37.859 26.8924V24.5834C37.859 23.645 38.6198 22.8842 39.5582 22.8842H42.7361C43.6745 22.8842 44.4353 23.645 44.4353 24.5834V26.8924Z" fill="white"/>
</svg>
