<svg width="66" height="66" viewBox="0 0 66 66" fill="none" xmlns="http://www.w3.org/2000/svg">
<g clip-path="url(#clip0_79_352)">
<path d="M65.6218 24.1C65.299 23.7062 64.8174 23.4764 64.3121 23.4764H57.8887C56.3035 19.2955 54.2384 15.1992 51.8911 13.6529C43.771 8.31102 22.2329 8.31102 14.1129 13.6529C11.7639 15.2008 9.70722 19.3023 8.11362 23.4764H1.69021C1.17986 23.4764 0.699919 23.7062 0.380523 24.1C0.0594375 24.4921 -0.0689968 25.0109 0.0357785 25.5094L0.987206 30.1195C1.14944 30.9053 1.84231 31.4664 2.64164 31.4664H4.5445C2.70755 33.5855 1.81696 36.2539 1.80513 38.924C1.7933 42.2227 3.04553 45.2038 5.33538 47.3128C5.36073 47.3348 5.38608 47.35 5.40974 47.3719V53.8224C5.40974 55.2199 6.54537 56.3573 7.94463 56.3573H13.8695C15.2688 56.3573 16.4044 55.2199 16.4044 53.8224V51.23H49.5962V53.8224C49.5962 55.2199 50.7318 56.3573 52.1311 56.3573H58.056C59.4518 56.3573 60.5909 55.2199 60.5909 53.8224V47.4987C63.021 45.2731 64.1819 42.2109 64.1972 39.1538C64.2073 36.3925 63.2761 33.6261 61.331 31.463H63.3606C64.1634 31.463 64.8562 30.9019 65.0151 30.1144L65.9682 25.506C66.0662 25.0109 65.9428 24.4954 65.6218 24.1ZM16.8962 17.8861C23.3686 13.6258 42.632 13.6258 49.1011 17.8861C50.3584 18.7108 51.9756 22.045 53.4577 26.1279H12.5429C14.0216 22.0467 15.6389 18.7142 16.8962 17.8861ZM9.31516 39.5594C9.31516 36.8048 11.5492 34.5741 14.3021 34.5741C17.0584 34.5741 19.2891 36.8048 19.2891 39.5594C19.2891 42.314 17.0584 44.5464 14.3021 44.5464C11.5492 44.5464 9.31516 42.314 9.31516 39.5594ZM51.7644 44.5464C49.0115 44.5464 46.7774 42.314 46.7774 39.5594C46.7774 36.8048 49.0115 34.5741 51.7644 34.5741C54.5206 34.5741 56.7513 36.8048 56.7513 39.5594C56.7513 42.314 54.5173 44.5464 51.7644 44.5464Z" fill="white"/>
</g>
<defs>
<clipPath id="clip0_79_352">
<rect width="66" height="66" fill="white"/>
</clipPath>
</defs>
</svg>
