<svg width="65" height="65" viewBox="0 0 65 65" fill="none" xmlns="http://www.w3.org/2000/svg">
<g clip-path="url(#clip0_79_371)">
<path d="M52.2996 14.2465C51.8257 14.2465 51.3463 14.0813 50.9617 13.7427C45.8348 9.2469 39.278 6.77148 32.5017 6.77148C26.1155 6.77148 19.8701 9.01128 14.9138 13.0819C14.0444 13.7942 12.7634 13.6669 12.0538 12.8002C11.3442 11.9336 11.4688 10.6525 12.3355 9.94023C18.0148 5.27648 25.1784 2.70898 32.5017 2.70898C40.2638 2.70898 47.7713 5.5419 53.6403 10.6877C54.4826 11.4271 54.5665 12.7109 53.8271 13.5559C53.4263 14.0109 52.863 14.2465 52.2996 14.2465Z" fill="white"/>
<path d="M19.6341 13.5425H12.8633C11.742 13.5425 10.832 12.6325 10.832 11.5113V4.74044C10.832 3.91982 11.3277 3.17773 12.086 2.86357C12.8443 2.5494 13.7191 2.72273 14.2987 3.30503L21.0695 10.0759C21.6491 10.6554 21.8252 11.5302 21.511 12.2886C21.1968 13.0469 20.4547 13.5425 19.6341 13.5425Z" fill="white"/>
<path d="M32.8265 62.2917C25.0617 62.2917 17.5542 59.4588 11.6879 54.3129C10.8429 53.5736 10.7617 52.2898 11.501 51.4448C12.2404 50.6025 13.5242 50.5186 14.3692 51.2579C19.4933 55.7538 26.0475 58.2292 32.8265 58.2292C39.2127 58.2292 45.4581 55.9894 50.4144 51.9188C51.2811 51.2038 52.5594 51.3311 53.2744 52.2004C53.9867 53.0671 53.8594 54.3481 52.9927 55.0604C47.3133 59.7242 40.1498 62.2917 32.8265 62.2917Z" fill="white"/>
<path d="M52.1376 62.2923C51.6095 62.2923 51.0895 62.0865 50.7022 61.6965L43.9314 54.9257C43.3518 54.3461 43.1758 53.4713 43.4899 52.7129C43.8041 51.9546 44.5462 51.459 45.3668 51.459H52.1376C53.2589 51.459 54.1689 52.369 54.1689 53.4902V60.2611C54.1689 61.0817 53.6733 61.8238 52.9149 62.1379C52.6631 62.2409 52.4003 62.2923 52.1376 62.2923Z" fill="white"/>
<path d="M13.5404 32.5007C17.2798 32.5007 20.3112 29.4692 20.3112 25.7298C20.3112 21.9904 17.2798 18.959 13.5404 18.959C9.80094 18.959 6.76953 21.9904 6.76953 25.7298C6.76953 29.4692 9.80094 32.5007 13.5404 32.5007Z" fill="white"/>
<path d="M19.6354 35.209H7.44792C3.33938 35.209 0 38.5484 0 42.6569V44.0111C0 45.1323 0.91 46.0423 2.03125 46.0423H25.0521C26.1733 46.0423 27.0833 45.1323 27.0833 44.0111V42.6569C27.0833 38.5484 23.744 35.209 19.6354 35.209Z" fill="white"/>
<path d="M51.4583 32.5007C55.1978 32.5007 58.2292 29.4692 58.2292 25.7298C58.2292 21.9904 55.1978 18.959 51.4583 18.959C47.7189 18.959 44.6875 21.9904 44.6875 25.7298C44.6875 29.4692 47.7189 32.5007 51.4583 32.5007Z" fill="white"/>
<path d="M57.5534 35.209H45.3659C41.2573 35.209 37.918 38.5484 37.918 42.6569V44.0111C37.918 45.1323 38.828 46.0423 39.9492 46.0423H62.9701C64.0913 46.0423 65.0013 45.1323 65.0013 44.0111V42.6569C65.0013 38.5484 61.6619 35.209 57.5534 35.209Z" fill="white"/>
</g>
<defs>
<clipPath id="clip0_79_371">
<rect width="65" height="65" fill="white"/>
</clipPath>
</defs>
</svg>
