<svg width="60" height="60" viewBox="0 0 60 60" fill="none" xmlns="http://www.w3.org/2000/svg">
<path d="M12.4219 60H47.5781C50.486 60 52.8516 57.6345 52.8516 54.7266V17.5781H40.5469C37.639 17.5781 35.2734 15.2126 35.2734 12.3047V0H12.4219C9.51398 0 7.14844 2.36555 7.14844 5.27344V54.7266C7.14844 57.6345 9.51398 60 12.4219 60ZM19.4531 24.7266H40.5469C41.5185 24.7266 42.3047 25.5128 42.3047 26.4844C42.3047 27.456 41.5185 28.2422 40.5469 28.2422H19.4531C18.4815 28.2422 17.6953 27.456 17.6953 26.4844C17.6953 25.5128 18.4815 24.7266 19.4531 24.7266ZM19.4531 31.7578H40.5469C41.5185 31.7578 42.3047 32.544 42.3047 33.5156C42.3047 34.4872 41.5185 35.2734 40.5469 35.2734H19.4531C18.4815 35.2734 17.6953 34.4872 17.6953 33.5156C17.6953 32.544 18.4815 31.7578 19.4531 31.7578ZM19.4531 38.7891H40.5469C41.5185 38.7891 42.3047 39.5753 42.3047 40.5469C42.3047 41.5185 41.5185 42.3047 40.5469 42.3047H19.4531C18.4815 42.3047 17.6953 41.5185 17.6953 40.5469C17.6953 39.5753 18.4815 38.7891 19.4531 38.7891ZM19.4531 45.8203H33.5156C34.4872 45.8203 35.2734 46.6065 35.2734 47.5781C35.2734 48.5497 34.4872 49.3359 33.5156 49.3359H19.4531C18.4815 49.3359 17.6953 48.5497 17.6953 47.5781C17.6953 46.6065 18.4815 45.8203 19.4531 45.8203Z" fill="white"/>
<path d="M40.5469 14.0618H51.8216L38.7891 1.0293V12.304C38.7891 13.2739 39.577 14.0618 40.5469 14.0618Z" fill="white"/>
</svg>
