<svg width="59" height="59" viewBox="0 0 59 59" fill="none" xmlns="http://www.w3.org/2000/svg">
<path d="M57.6863 24.4988L50.7838 22.8049C50.4035 21.5949 49.9195 20.4195 49.3318 19.2787L52.858 13.4018C53.2729 12.7104 53.1691 11.8461 52.616 11.293L47.707 6.38398C47.1539 5.83086 46.2896 5.72715 45.5982 6.14199L39.7213 9.66816C38.5805 9.08047 37.4051 8.59649 36.1951 8.21621L34.5357 1.31367C34.3283 0.553125 33.6369 0 32.8418 0H25.9277C25.1326 0 24.4412 0.553125 24.2338 1.31367L22.5744 8.21621C21.3645 8.59649 20.1891 9.08047 19.0482 9.66816L13.1713 6.14199C12.4799 5.72715 11.6156 5.83086 11.0625 6.38398L6.15352 11.293C5.60039 11.8461 5.49668 12.7104 5.91152 13.4018L9.4377 19.2787C8.85 20.4195 8.36602 21.5949 7.98574 22.8049L1.31367 24.4988C0.553125 24.6717 0 25.3631 0 26.1582V33.0723C0 33.8674 0.553125 34.5588 1.31367 34.7316L7.98574 36.4256C8.36602 37.6355 8.85 38.8109 9.4377 39.9518L5.91152 45.8287C5.49668 46.5201 5.60039 47.3844 6.15352 47.9375L11.0625 52.8465C11.6156 53.3996 12.4799 53.5033 13.1713 53.0885L19.0482 49.5623C20.1891 50.15 21.3645 50.634 22.5744 51.0143L24.2338 57.6863C24.4412 58.4469 25.1326 59 25.9277 59H32.8418C33.6369 59 34.3283 58.4469 34.5357 57.6863L36.1951 51.0143C37.4051 50.634 38.5805 50.15 39.7213 49.5623L45.5982 53.0885C46.2896 53.5033 47.1539 53.3996 47.707 52.8465L52.616 47.9375C53.1691 47.3844 53.2729 46.5201 52.858 45.8287L49.3318 39.9518C49.9195 38.8109 50.4035 37.6355 50.7838 36.4256L57.6863 34.7316C58.4469 34.5588 59 33.8674 59 33.0723V26.1582C59 25.3631 58.4469 24.6717 57.6863 24.4988ZM29.3848 38.2578C24.6141 38.2578 20.7422 34.3859 20.7422 29.6152C20.7422 24.8445 24.6141 20.9727 29.3848 20.9727C34.1555 20.9727 38.0273 24.8445 38.0273 29.6152C38.0273 34.3859 34.1555 38.2578 29.3848 38.2578Z" fill="white"/>
</svg>
