<svg width="66" height="66" viewBox="0 0 66 66" fill="none" xmlns="http://www.w3.org/2000/svg">
<path d="M33 63.9375C39.1189 63.9375 45.1003 62.1231 50.1879 58.7236C55.2756 55.3242 59.2409 50.4924 61.5825 44.8393C63.9241 39.1862 64.5368 32.9657 63.343 26.9644C62.1493 20.9631 59.2028 15.4506 54.8761 11.1239C50.5494 6.79721 45.0369 3.8507 39.0356 2.65697C33.0343 1.46324 26.8138 2.0759 21.1607 4.41749C15.5076 6.75908 10.6759 10.7244 7.27641 15.8121C3.87695 20.8997 2.0625 26.8812 2.0625 33C2.0625 41.2052 5.32198 49.0742 11.1239 54.8761C16.9258 60.678 24.7949 63.9375 33 63.9375ZM23.5936 36.9009C23.0466 36.9009 22.522 36.6836 22.1352 36.2968C21.7484 35.91 21.5311 35.3854 21.5311 34.8384C21.5311 34.2914 21.7484 33.7668 22.1352 33.38C22.522 32.9932 23.0466 32.7759 23.5936 32.7759H27.1769V19.4164C27.1769 18.8694 27.3942 18.3448 27.781 17.958C28.1678 17.5712 28.6924 17.3539 29.2394 17.3539H34.694C37.2861 17.3539 39.772 18.3836 41.6049 20.2165C43.4378 22.0494 44.4675 24.5353 44.4675 27.1274C44.4675 29.7195 43.4378 32.2054 41.6049 34.0383C39.772 35.8712 37.2861 36.9009 34.694 36.9009H31.3019V39.3443H40.3906C40.9376 39.3443 41.4622 39.5616 41.849 39.9484C42.2358 40.3352 42.4531 40.8598 42.4531 41.4068C42.4531 41.9538 42.2358 42.4784 41.849 42.8652C41.4622 43.252 40.9376 43.4693 40.3906 43.4693H31.3019V46.5946C31.3019 47.1417 31.0846 47.6663 30.6978 48.0531C30.311 48.4398 29.7864 48.6571 29.2394 48.6571C28.6924 48.6571 28.1678 48.4398 27.781 48.0531C27.3942 47.6663 27.1769 47.1417 27.1769 46.5946V43.4693H23.5936C23.0466 43.4693 22.522 43.252 22.1352 42.8652C21.7484 42.4784 21.5311 41.9538 21.5311 41.4068C21.5311 40.8598 21.7484 40.3352 22.1352 39.9484C22.522 39.5616 23.0466 39.3443 23.5936 39.3443H27.1769V36.9009H23.5936Z" fill="white"/>
<path d="M40.3428 27.127C40.341 25.6293 39.7451 24.1934 38.6859 23.1344C37.6267 22.0755 36.1907 21.48 34.6929 21.4785H31.3008V32.7755H34.6929C36.1907 32.7741 37.6267 32.1785 38.6859 31.1196C39.7451 30.0606 40.341 28.6248 40.3428 27.127Z" fill="white"/>
</svg>
