<svg width="67" height="67" viewBox="0 0 67 67" fill="none" xmlns="http://www.w3.org/2000/svg">
<g clip-path="url(#clip0_79_275)">
<path d="M36.515 31.4907L50.25 65.9957H16.75L30.485 31.4907C28.14 30.4857 26.8 28.4757 26.8 25.7957C26.8 22.1107 29.815 19.0957 33.5 19.0957C37.185 19.0957 40.2 22.1107 40.2 25.7957C40.2 28.4757 38.86 30.4857 36.515 31.4907Z" fill="white"/>
<path d="M14.4028 44.5559C15.7428 45.8959 15.7428 47.9059 14.4028 49.2459C13.0628 50.5859 11.0528 50.5859 9.71281 49.2459C-3.35219 36.1809 -3.35219 15.0759 9.71281 2.01086C11.0528 0.670859 13.0628 0.670859 14.4028 2.01086C15.7428 3.35086 15.7428 5.36086 14.4028 6.70086C4.01781 17.0859 4.01781 34.1709 14.4028 44.5559Z" fill="white"/>
<path d="M19.4284 11.3917C20.7684 10.0517 22.7784 10.0517 24.1184 11.3917C25.4584 12.7317 25.4584 14.7417 24.1184 16.0817C18.7584 21.4417 18.7584 29.8167 24.1184 34.8417C25.4584 36.1817 25.4584 38.1917 24.1184 39.5317C22.7784 40.8717 20.7684 40.8717 19.4284 39.5317C11.3884 32.1617 11.3884 19.4317 19.4284 11.3917Z" fill="white"/>
<path d="M42.88 35.1757C47.905 29.8157 47.905 21.4407 42.88 16.4157C41.54 15.0757 41.54 13.0657 42.88 11.7257C44.22 10.3857 46.23 10.3857 47.57 11.7257C55.275 19.4307 55.275 32.1607 47.57 40.2007C46.23 41.5407 44.22 41.5407 42.88 40.2007C41.54 38.5257 41.54 36.5157 42.88 35.1757Z" fill="white"/>
<path d="M57.2809 49.5818C55.9409 50.9218 53.9309 50.9218 52.5909 49.5818C51.2509 48.2418 51.2509 46.2318 52.5909 44.8918C62.9759 34.5068 62.9759 17.4218 52.5909 7.0368C51.2509 5.6968 51.2509 3.6868 52.5909 2.3468C53.9309 1.0068 55.9409 1.0068 57.2809 2.3468C70.3459 15.0768 70.3459 36.1818 57.2809 49.5818Z" fill="white"/>
</g>
<defs>
<clipPath id="clip0_79_275">
<rect width="67" height="67" fill="white"/>
</clipPath>
</defs>
</svg>
