<svg width="60" height="74" viewBox="0 0 60 74" fill="none" xmlns="http://www.w3.org/2000/svg">
<path d="M45.6378 19.2598C43.8219 19.8961 41.9123 20.2245 39.9882 20.2316C36.3476 20.2206 32.7981 19.0926 29.8189 17C26.8562 19.0844 23.3283 20.2156 19.7061 20.2429C17.7624 20.2384 15.8333 19.906 14 19.2598V40.7283C14 42.3215 19.6496 51.5078 29.8189 57.6771C39.9091 51.4739 45.6378 42.2876 45.6378 40.7283C45.5587 36.1183 45.6378 23.7795 45.6378 19.2598Z" fill="white"/>
<path d="M59.0745 4.73861C59.0805 3.982 58.4721 3.36376 57.7154 3.35777C57.5182 3.35623 57.3228 3.39733 57.1428 3.47816C53.8231 5.00011 50.2179 5.79868 46.566 5.82094C40.8882 5.75107 35.3888 3.8265 30.9064 0.340756C30.3892 -0.113585 29.6151 -0.113585 29.0979 0.340756C24.6233 3.84105 19.119 5.76734 13.4383 5.82094C9.7864 5.79868 6.18112 5.00011 2.8615 3.47816C2.17133 3.16785 1.36044 3.47594 1.05012 4.16593C0.969289 4.34592 0.928188 4.54115 0.929729 4.73861C0.929729 5.02632 1.02563 33.2767 0.929729 42.6341C0.929729 47.6485 12.5477 63.8698 29.3034 73.8164C29.7273 74.0611 30.2496 74.0611 30.6735 73.8164C47.4565 63.8698 59.1293 47.6348 59.0745 42.6204C58.9786 33.263 59.0745 5.01262 59.0745 4.73861ZM30.7009 64.5686C30.277 64.8133 29.7547 64.8133 29.3308 64.5686C16.7949 57.1429 8.08138 44.9495 8.08138 41.127C8.14988 34.1946 8.08138 13.2877 8.08138 13.0685C8.07538 12.3119 8.68385 11.6936 9.44046 11.6877C9.63775 11.6861 9.83315 11.7272 10.0131 11.808C12.4248 12.9171 15.0446 13.5009 17.6991 13.5206C21.8231 13.499 25.8267 12.1276 29.0979 9.61597C29.6151 9.16163 30.3892 9.16163 30.9064 9.61597C34.1589 12.1396 38.1476 13.5302 42.264 13.5754C44.9185 13.5557 47.5384 12.9719 49.95 11.8628C50.6402 11.5525 51.4511 11.8606 51.7614 12.5506C51.8422 12.7306 51.8833 12.9258 51.8818 13.1233C51.9229 13.3288 51.8133 34.2768 51.9229 41.127C51.9229 44.9495 43.2094 57.1429 30.7009 64.5686Z" fill="white"/>
</svg>
