<svg width="65" height="65" viewBox="0 0 65 65" fill="none" xmlns="http://www.w3.org/2000/svg">
<g clip-path="url(#clip0_79_409)">
<path d="M64.9427 25.1053C64.8055 24.6841 64.4413 24.3769 64.0026 24.3129L42.9553 21.2541L33.5428 2.18242C33.3473 1.78451 32.9425 1.5332 32.5003 1.5332C32.0582 1.5332 31.6522 1.78451 31.4579 2.18242L22.0442 21.2553L0.996846 24.3141C0.558215 24.3781 0.19521 24.6841 0.0567561 25.1064C-0.0793708 25.5264 0.0334866 25.9895 0.351116 26.2978L15.5822 41.1438L11.9859 62.1073C11.9114 62.5436 12.0906 62.9846 12.4478 63.2452C12.8073 63.5082 13.2832 63.5419 13.6729 63.3336L32.5003 53.4371L51.3254 63.3336C51.4953 63.4232 51.6826 63.4674 51.8676 63.4674C52.1084 63.4674 52.3481 63.393 52.5517 63.2452C52.9101 62.9846 53.0892 62.5436 53.0136 62.1073L49.4185 41.145L64.6496 26.2978C64.966 25.9872 65.08 25.5253 64.9427 25.1053Z" fill="white"/>
<circle cx="32.5" cy="35.5" r="8.5" fill="#219022"/>
</g>
<defs>
<clipPath id="clip0_79_409">
<rect width="65" height="65" fill="white"/>
</clipPath>
</defs>
</svg>
