<svg width="62" height="61" viewBox="0 0 62 61" fill="none" xmlns="http://www.w3.org/2000/svg">
<path d="M31 0C13.9059 0 0 13.6816 0 30.5C0 47.3184 13.9059 61 31 61C48.0941 61 62 47.3184 62 30.5C62 13.6816 48.0941 0 31 0ZM45.7432 46.2759C45.2394 46.7715 44.5781 47.021 43.9168 47.021C43.2555 47.021 42.5938 46.7715 42.0905 46.2759L29.1737 33.5679C28.6879 33.0927 28.4168 32.4467 28.4168 31.771V15.25C28.4168 13.8445 29.5738 12.7085 31 12.7085C32.4262 12.7085 33.5832 13.8445 33.5832 15.25V30.7187L45.7432 42.6821C46.7531 43.6762 46.7531 45.2823 45.7432 46.2759Z" fill="white"/>
</svg>
