<svg width="26" height="26" viewBox="0 0 26 26" fill="none" xmlns="http://www.w3.org/2000/svg">
<g clip-path="url(#clip0_79_301)">
<path d="M12.9657 -0.00390625H12.9593C5.81206 -0.00390625 0 5.80978 0 12.9586C0 15.7941 0.913857 18.4223 2.46774 20.5562L0.852285 25.3718L5.83475 23.779C7.88444 25.1369 10.3295 25.9211 12.9657 25.9211C20.1129 25.9211 25.925 20.1058 25.925 12.9586C25.925 5.8114 20.1129 -0.00390625 12.9657 -0.00390625ZM20.5083 18.3008C20.1956 19.1838 18.9544 19.9162 17.9644 20.1301C17.2871 20.2743 16.4024 20.3894 13.4243 19.1547C9.61494 17.5765 7.16178 13.7056 6.97059 13.4544C6.78749 13.2033 5.43129 11.4047 5.43129 9.5446C5.43129 7.68448 6.37593 6.77872 6.7567 6.38985C7.06943 6.07065 7.58631 5.92482 8.08212 5.92482C8.24253 5.92482 8.38674 5.93292 8.51637 5.9394C8.89714 5.9556 9.08834 5.97829 9.33948 6.57943C9.6522 7.33287 10.4138 9.19299 10.5045 9.38419C10.5968 9.57538 10.6892 9.83463 10.5596 10.0858C10.4381 10.345 10.3311 10.4601 10.1399 10.6804C9.94872 10.9008 9.76725 11.0693 9.57605 11.3059C9.40106 11.5117 9.20338 11.732 9.42374 12.1128C9.6441 12.4855 10.4056 13.7282 11.5269 14.7264C12.9738 16.0145 14.147 16.4261 14.5666 16.6011C14.8793 16.7307 15.252 16.6999 15.4805 16.4569C15.7705 16.1441 16.1286 15.6256 16.4932 15.1152C16.7524 14.749 17.0797 14.7037 17.4232 14.8333C17.7732 14.9548 19.6252 15.8703 20.006 16.0599C20.3868 16.2511 20.6379 16.3418 20.7303 16.5022C20.821 16.6626 20.821 17.4161 20.5083 18.3008Z" fill="white"/>
</g>
<defs>
<clipPath id="clip0_79_301">
<rect width="25.925" height="25.925" fill="white"/>
</clipPath>
</defs>
</svg>
